<svg width="32" height="32" fill="none" xmlns="http://www.w3.org/2000/svg"><rect width="32" height="32" rx="8" fill="#EEE"/><path d="M14.95 5.37c1.24 2.44-2.57 4.09-4.31 2.26-.73-.77-.4-2.28 1.37-3.1.88-.41 2.12-.79 2.94.84ZM22.74 4.3c1.34 2.65-2.8 4.45-4.7 2.46-.8-.84-.43-2.48 1.5-3.37.95-.45 2.3-.86 3.2.91Z" fill="#000"/><path fill-rule="evenodd" clip-rule="evenodd" d="M14.78 26.94c2.81.3 5.74-.54 6.87-2.28.96-1.46.18-1.97-.93-.79-2.32 2.56-4.72 1.4-5.74-1.18l.26-.08c4.9-1.88 7.98-7 6.04-9.89C18.6 8.73 10.25 12.3 9.2 17.9c-.95 5.17 1.54 8.63 5.58 9.05ZM17.79 13c.85 1.3-.17 5.87-3.22 7.95a9.9 9.9 0 0 1-.03-2.08c.61-5.1 2.36-7.21 3.25-5.87Z" fill="#000"/></svg>